<?xml version="1.0" encoding="UTF-8"?>
<svg enable-background="new 0 0 944 425" version="1.1" viewBox="0 0 944 425" xml:space="preserve" xmlns="http://www.w3.org/2000/svg">
<style type="text/css">
	.st0{fill:#705843;}
	.st1{fill:none;stroke:#D9D9D9;stroke-width:1.1316;stroke-miterlimit:10;stroke-dasharray:2.2632,2.2632;}
	.st2{fill:none;stroke:#6F6F6E;stroke-width:4.5264;stroke-linecap:round;stroke-linejoin:round;stroke-miterlimit:10;}
	.st3{fill:#1E1E1C;}
	.st4{font-family:'BarlowSemiCondensed-Light';}
	.st5{font-size:15.5585px;}
	.st6{fill:#FFFFFF;}
	.st7{font-family:'BarlowSemiCondensed-Bold';}
	.st8{fill:none;}
	.st9{fill:none;stroke:#CCCBCB;stroke-width:2.2632;stroke-linecap:round;stroke-linejoin:round;stroke-miterlimit:10;}
	.st10{fill:#E6E5E5;}
	.st11{fill:#B3B3B2;}
	.st12{fill:#F1F1F1;}
	.st13{fill:#CCCBCB;}
	.st14{fill:#989898;}
	.st15{fill:none;stroke:#B3B3B2;stroke-width:2.2632;stroke-linecap:round;stroke-linejoin:round;stroke-miterlimit:10;}
	.st16{opacity:0.4;fill:#CCCBCB;}
	.st17{fill:#CCCBCB;stroke:#CCCBCB;stroke-width:2.2632;stroke-miterlimit:10;}
	.st18{fill:none;stroke:#CCCBCB;stroke-width:1.6974;stroke-linecap:round;stroke-linejoin:round;stroke-miterlimit:10;}
	.st19{fill:none;stroke:#E31313;stroke-width:2.2632;stroke-miterlimit:10;}
	.st20{fill:#D7D5D5;}
	.st21{fill:#DADADA;}
	.st22{fill:#E6E5E5;stroke:#CCCBCB;stroke-width:1.6974;stroke-linecap:round;stroke-linejoin:round;stroke-miterlimit:10;}
	.st23{fill:#C9C8C8;}
	.st24{fill:#B7B6B6;}
	.st25{fill:#919191;}
	.st26{fill:#343332;}
	.st27{fill:#F9BD74;}
	.st28{fill:#DDBA91;}
	.st29{fill:#A98F72;}
</style>
	<path class="st0" d="m849.78 378.42h-41.57c-27.3-0.52-27.32-41.05 0-41.57h41.57c27.3 0.52 27.32 41.05 0 41.57z"/>
		<line class="st1" x1="75.47" x2="883" y1="44.52" y2="44.52"/>
		<line class="st1" x1="75.47" x2="883" y1="91.94" y2="91.94"/>
		<line class="st1" x1="75.47" x2="883" y1="139.35" y2="139.35"/>
		<line class="st1" x1="75.47" x2="883" y1="186.77" y2="186.77"/>
		<line class="st1" x1="75.47" x2="883" y1="234.18" y2="234.18"/>
		<line class="st1" x1="75.47" x2="883" y1="281.6" y2="281.6"/>
		<line class="st2" x1="75.47" x2="883" y1="329.01" y2="329.01"/>
		<text transform="translate(129.93 350.48)"><tspan class="st3 st4 st5" x="0" y="0">Oso</tspan><tspan class="st3 st4 st5" x="-4.14" y="18.67">Polar</tspan></text>
		<text transform="translate(228.91 350.48)"><tspan class="st3 st4 st5" x="0" y="0">Oso</tspan><tspan class="st3 st4 st5" x="-6.29" y="18.67">Pardo</tspan></text>
		<text transform="translate(466.67 350.48)"><tspan class="st3 st4 st5" x="0" y="0">Oso </tspan><tspan class="st3 st4 st5" x="-13.47" y="18.67">Tibetano</tspan></text>
		<text transform="translate(324.69 350.48)"><tspan class="st3 st4 st5" x="0" y="0">Oso Negro</tspan><tspan class="st3 st4 st5" x="-1.35" y="18.67">Americano</tspan></text>
		<text transform="translate(577.29 350.48)"><tspan class="st3 st4 st5" x="0" y="0">Oso de</tspan><tspan class="st3 st4 st5" x="-6" y="18.67">Anteojos</tspan></text>
		<text transform="translate(705.43 350.48)"><tspan class="st3 st4 st5" x="0" y="0">Oso</tspan><tspan class="st3 st4 st5" x="-10.85" y="18.67">Bezudo</tspan></text>
	<text transform="translate(817.29 353.27)"><tspan class="st6 st7 st5" x="0" y="0">Oso</tspan><tspan class="st6 st7 st5" x="-9.99" y="18.67">Malayo</tspan></text>
	<rect class="st8" x="36.17" y="274.6" width="32.54" height="12.24"/>
	<text class="st3 st7 st5" transform="translate(36.171 285.49)">0,5 M</text>
	<rect class="st8" x="36.17" y="227.12" width="32.54" height="12.24"/>
	<text class="st3 st7 st5" transform="translate(36.171 238.02)">1,0 M</text>
	<rect class="st8" x="36.17" y="179.65" width="32.54" height="12.24"/>
	<text class="st3 st7 st5" transform="translate(36.171 190.54)">1,5 M</text>
	<rect class="st8" x="36.17" y="132.18" width="32.54" height="12.24"/>
	<text class="st3 st7 st5" transform="translate(36.171 143.07)">2,0 M</text>
	<rect class="st8" x="36.17" y="84.71" width="32.54" height="12.24"/>
	<text class="st3 st7 st5" transform="translate(36.171 95.602)">2,5 M</text>
	<rect class="st8" x="36.17" y="37.24" width="32.54" height="12.24"/>
	<text class="st3 st7 st5" transform="translate(36.171 48.13)">3,0 M</text>
	<rect class="st8" x="36.17" y="322.07" width="32.54" height="12.24"/>
	<text class="st3 st7 st5" transform="translate(36.171 332.96)">0,0 M</text>
	<path class="st9" d="m257.84 324.58s0.55 2.77 2.21 3.87"/>
		<path class="st10" d="m157.46 328.8h-41.61s-1.29-5.81 2.59-17.43c0 0 2.16-24.75-2.79-30.64 0 0-14.92-13.64-18.24-28.58 0 0-7.15 13.84-6.9 0 0 0-5.28-28.23 8.56-50.92 0 0 9.55-18.4 24.42-34.11 0 0 15.98-21.24 17.09-28.44 0 0-2.21-20.48 10.52-29.33 0 0 11.62-9.96 13.84-19.37 0 0 6.09-26.57 18.82-27.12 0 0 1.66-11.62 9.96-3.32 0 0 9.96-0.55 13.28 6.64 0 0 6.09-5.53 12.18 3.87l8.86 6.09c5.84-1.09 7.05 5.97 1.11 6.64 0 0 1.66 3.87-2.21 4.98-2.67 7.89-15.04-9.17-22.14 7.2 0 0-9.96 13.28-7.19 35.98 0 0 4.43 14.39 1.66 26.57 0 0 0 14.94-1.11 16.05 0 0 3.32 27.12 6.09 31.55 0 0 4.98 8.3 2.21 17.71 0 0 0.55 31.55-4.98 31.55 0 0-3.32 2.77-4.43-9.41 0 0-6.09-17.16-4.98-28.78 0 0-9.96-19.93-11.07-18.82 0 0-6.83 16.05-8.68 34.87 0 0-11.8 27.67-18.45 27.67s-1.66-0.55-1.66-0.55c13.4 32.37-28.43 46.97-10.52 61.44-0.01-0.01 12.72 1.65 15.77 8.01z"/>
			<path class="st11" d="m211.12 69.08c-2.13 1.56-7.03 0.16-7.53 3.42 0.07 0.52 0.9 0.53 0.83 0-0.55-1.91 9.76-1.92 6.7-3.42z"/>
		<path class="st11" d="m209.49 71.71c0.03 1.8-2.79 1.8-2.77 0-0.03-1.79 2.79-1.79 2.77 0z"/>
		<path class="st12" d="m209.49 71.66c0.02 1.11-1.72 1.11-1.71 0-0.02-1.11 1.72-1.11 1.71 0z"/>
		<path class="st9" d="m183.75 62.86s-1.38 4.7 1.94 4.7"/>
		<path class="st9" d="m188.18 61.75c2.62 6.1-10.17 5.7-1.11 26.01"/>
		<path class="st9" d="m150.49 109.79s5.03-3.21 8.91-1.55"/>
		<path class="st13" d="m219.17 70.05s-4.98 9.84 0 18.48c0 0 7.2 3.66 7.75-0.77 0 0 3.87-1.11 2.21-4.98l-1.11-6.64-8.85-6.09z"/>
		<path class="st14" d="m228.03 76.14c-2.61 4.56 2.21 10.63 4.98 3.86 0 0 1.11-4.41-4.98-3.86z"/>
		<path class="st15" d="m226.92 87.76s-8.3-1.11-10.52-3.32"/>
		<path class="st10" d="m306.07 171.83s7.67-7.67 6.39-10.23c0 0 0.32-6.71 7.35-8.63 0 0 12.15-0.64 12.15-3.2 0 0-3.84-1.28-1.92-8.95-13.28-7.46-2.92-20.12 6.06-14.71-3.95-6.13-9.7-12.75-20.13-14.07 0 0-7.67-5.12-10.87 2.56 0 0-30.68 8.88-32.6 26.5 0 0-21.75 5.47-19.83 37.44 0 0-0.64 5.12-13.43 14.07 0 0-2.56 0.64-4.48 3.84 0 0-14.07 20.46-13.43 24.94 0 0-11.51 21.74-12.79 21.74 0 0-8.95 38.36 5.75 26.86 0 0 17.26 17.9 21.1 17.9 0 0 1.28 15.35-0.64 24.94 0 0-7.03 15.35 1.28 15.99h25.55l1.95-4.48s-4.48-3.2-10.23-3.84c0 0-5.12-2.56-2.56-8.95 0 0 11.51-16.62 10.23-26.22 0 0 0.64-14.07-1.92-15.35 0 0 15.99-1.92 27.49-38.36 0 0 12.79 13.43 12.79 19.82-2.21 4.38 4.12 10.79 5.12 17.26-2.67 2.15 7.37 6.02 8.31 7.03 0 0 1.92-8.95-1.92-20.46 2.26-6.04-2.42-30.55-10.23-41.56 0 0 7.67-14.07 5.75-27.49 0.03 0 1.95-7.04-0.29-14.39z"/>
		<path class="st13" d="m336.11 126.11s3.85 2.88 2.57 4.16c0 0 4.48 3.2 7.03 3.2s0.9 0 0.9 0 8.05 5.12 7.41 12.15c0 0 0 1.28-2.56 1.28 0 0 0.64 3.84-5.75 3.2 0 0-13.12 0.9-14.55-0.83s0 0 0 0-3.35-1.09-1.11-8.44 0 0 0 0-12.97-6.85-4.09-13.5c8.88-6.64 0 0 0 0s4.39-6.01 10.15-1.22"/>
		<path class="st14" d="m350.73 136.4c-0.8 2.16-1.98 6.81 3.97 5.91 7-1.17 0 0 0 0 3.37-1.5 4.51-8.33-4.12-5.55"/>
			<path class="st11" d="m335.78 130.49c-1.51 1.17-3.81 0.35-5.16 1.09-0.23 1.93 8.35-0.38 5.16-1.09z"/>
		<path class="st16" d="m300.27 116.27s3.47 3.36 0 5.64c0 0-9.85 7.47-4.74 14.15 0 0 5.91 30.21 17.02 26.76-0.62-1.95-0.59-6.19 5.99-9.85 1.34-0.07 10.3-0.15 13.43-3.2 0 0-3.84-1.28-1.92-8.95 0 0-10.51-5.71-5.89-11.81 2.78-2.65 6.36-8.07 12.82-2.18-6.51-8.1-8.68-11.85-20.99-14.78 0 0-8.31-5.75-10.87 2.56l-4.85 1.66z"/>
		<path class="st9" d="m259.07 174.07s2.84-23.63 14.85-20.77"/>
		<path class="st17" d="m214.32 269.98s-0.64-1.28 1.92-7.67"/>
			<path class="st11" d="m331.2 134.43c1.21-0.05 2.4 0.41 3.26 1.28 0.44 0.44 1.11-0.24 0.68-0.68-0.43-1.14-5.85-2.5-3.94-0.6z"/>
			<path class="st11" d="m334.95 132.81c0.03 2.07-3.23 2.07-3.2 0-0.03-2.07 3.23-2.07 3.2 0z"/>
			<path class="st12" d="m334.95 132.75c0.02 1.28-1.99 1.28-1.97 0-0.02-1.28 1.99-1.28 1.97 0z"/>
		<path class="st15" d="m351.47 146.89s-3.52 0.32-6.71-1.6"/>
			<path class="st9" d="m316.92 153.3c-22.27-15.03 4.96-29.93-7.27-39"/>
			<path class="st9" d="m305.06 114.94s-1.93 9.37 7.38 7.88"/>
			<path class="st9" d="m315.96 112.38s3.84 3.84 1.92 5.75"/>
			<path class="st10" d="m374.98 294.2c-2.52 6.26-13.79 26.71-4.15 28.37 6.92 1.38 9.29 6.23 9.29 6.23s-20.4 0-20.4 0c-7.64 0-5.51-6.23-5.51-6.23 0.77-30.52-2.95-33.55-18.39-46.99-14.23 12.52-5.14-31.21-5.14-31.21 0-6.92 6.92-11.76 6.92-11.76 5.54-3.46 20.66-26.99 20.66-26.99 8.52-10.56-1.39-23.12 9.1-25.61-1.38-1.38 4.15-11.07 4.15-11.07 4.15-8.3 15.92-15.92 15.92-15.92-2.76 0.25-0.17-12.48 5.54-8.3 0.69-2.08 3.46-1.09 3.46-1.09-1.38 1.68 0 8.7 0 8.7 6.59 0.32 11.05 4.84 10.65 4.71-5.96 1.94-2.35 6.37-2.35 6.37 3.46 2.08 2.08 11.76 2.08 11.76-23.1 7.3-0.43 26.89-11.76 38.06 0 0 8.3 20.76 7.61 37.37l2.77 4.84s1.24 0.55 1.66 6.5c0 0 0.42 8.72-3.73 3.88 0 0-9-9.69-9-20.07 0 0-6.92-7.61-6.92-9 0 0-3.96 31.97-14.09 38.82 0 0.01 5.78 14.48 1.63 18.63z"/>
			<path class="st13" d="m406.67 156.57s-7.81 2.33-1.59 7.87c0 0 2.28 3.88 1.14 10.94 0 0 3.7-1.25 10.62-0.56 0 0 3.46-0.69 3.46-2.77 0 0 1.38-0.69 1.38-4.15v0c-2.04-8.51-6.79-3.56-11.07-6.92 0.01-1.38-3.94-4.41-3.94-4.41z"/>
			<path class="st14" d="m418.71 163.06s4.36-0.69 4.36 1.38c0 0-0.28 4.45-3.25 1.53 0 0.01-2.01-1.53-1.11-2.91z"/>
			<path class="st11" d="m420.31 172.32c-2.14-0.44-5.95-0.35-6.49-0.95-0.35-0.61 8.51 0.38 6.49 0.95z"/>
			<path class="st13" d="m398.07 178.24c-7.44 0.56-13.44-6.1-10.59-14.4-0.1 4.69-0.14 9.04 2.63 11.26 4.11 3.88 11.57 2.29 11.65 2.27 1.05 0.76-1.45 0.75-3.69 0.87z"/>
			<path class="st13" d="m395.05 213.49c-0.48-0.55 0.87-22.17-10.64-25.23 8.47-1.07 12.54 20.82 10.64 25.23z"/>
			<path class="st13" d="m387.44 237.02c-0.35 0.09-11.06-17.27-11.27-17.39-0.06 0.46-2.85-4.52 1.71-14.26-3.06 10.72-1.87 13.95-1.35 13.88-0.13 0.4 12.05 17.54 10.91 17.77z"/>
			<path class="st13" d="m367.37 180.27c-1.4-0.19 4.36-3.92 6.74-2.25-0.03 0.14-0.17 0.23-0.31 0.2-3.27-0.59-6.1 2-6.43 2.05z"/>
			<path class="st13" d="m373.35 275.84c-0.47-0.04-2.29-5.37-6-7.27-0.13-0.07-0.18-0.22-0.11-0.35 3.46 0.6 7.05 7.93 6.11 7.62z"/>
			<path class="st13" d="m335.83 275.84c-0.12 0.23-4.74-3.33-3.76-10.28 0.14 0 0.26 0.12 0.26 0.26-0.16 8.19 4.32 9.07 3.5 10.02z"/>
					<path class="st11" d="m406.52 159.18c-1.76 1.16-4.75-0.02-6.02 1.16 0.1 1.55 9.03-0.02 6.02-1.16z"/>
					<path class="st11" d="m405.44 161.25c0.04 1.7-3.69 1.7-3.65 0-0.04-1.7 3.69-1.7 3.65 0z"/>
					<path class="st12" d="m405.44 161.2c0.03 1.05-2.27 1.05-2.25 0-0.02-1.05 2.28-1.05 2.25 0z"/>
		<path class="st18" d="m520.49 175.8s-1.84-0.5-4.79-0.17"/>
		<path class="st19" d="m510.18 163.6"/>
		<path class="st10" d="m505.26 160.66s6.39 11.05 2.71 17.68c-7.95-0.09 5.19 15.22-5.03 27.29 0 0-0.12 22.13-5.28 28.03 0 0 5.16 21.39 3.68 25.08 0 0 3.68 16.96 0 16.23 0 0-6.76-9.85-7.93-14.36-0.51-3.81 0.34-12.73-3.85-12.93 0 0-12.52 30.24-15.47 30.98 0 0-1.47 2.21 2.95 5.9 0 0 7.37 11.06-9.58 29.5 0 0-5.89 6.64 5.89 8.11 0 0 7.03 1.48 6.09 6.64 0 0-1.67-2.21-3.15-1.48-0.62 2.67-16.36 1.07-18.42 1.48 0 0-3.68-0.74-3.68-5.16 0 0-2.95-18.85 0-22.7 0 0-15.47-12.7-15.47-17.13-7.05 15.18-10.38-18.54-5.52-25.5 0 0 1.84-17.28 8.47-22.44 0 0 10.31-21.39 19.15-25.08l1.47-7.38s-1.47-3.69 9.58-12.54c0.14-6.48-1.4-20.48 10.59-27.29-2.36-8.22 8.55-14.47 11.51-3.69 0 0.01 5.64-5.12 11.29 0.76z"/>
		<path class="st20" d="m505.26 160.66h4.92c-1.07 4.27 10.76 1.8 12.52 5.88 0 0 1.47 8.85-2.21 9.59 0 0-0.74 3.69-12.52 2.21 0 0.01 4.16-4.38-2.71-17.68z"/>
		<path class="st14" d="m521.72 165.3s4.66 1.25 4.66 2.73c0 0-1.21 4.63-4.66 3.42 0 0-0.97-1.5 0-6.15z"/>
		<path class="st21" d="m507.73 179.09s2.7-3.9 0.44-9.88c0 0-6.58 3.03-10.25 0 0 0-13.86-1.56-10.22 6.56 0 0 1.46 13.28 13.11 6.64 0 0 4.48-0.91 4.24-2.11 0-0.01 1.22-1.21 2.68-1.21z"/>
		<path class="st22" d="m489.55 247.68s-13.26-12.54-9.58-28.76"/>
				<path class="st11" d="m506.95 164.04c-1.85 1.23-5.15-0.01-6.41 1.23 0.11 1.67 9.62-0.01 6.41-1.23z"/>
				<path class="st11" d="m505.8 166.25c0.04 1.82-3.93 1.82-3.88 0-0.05-1.81 3.92-1.81 3.88 0z"/>
				<path class="st12" d="m505.8 166.2c0.03 1.12-2.42 1.12-2.39 0-0.03-1.12 2.41-1.12 2.39 0z"/>
		<path class="st21" d="m506.99 192.48s0.25 2.28-0.49 4.77l-6.64-6.37s-5.16-2.95-4.42-5.16c4.48-2.44 6.95 4.99 11.55 6.76z"/>
		<path class="st10" d="m635.05 171.85s-7.19-3.85-13.27-1.55c0 0-6.41-1.37-5.87 4.18l-10.81 9.64s-2.79 8.55-1.3 10.04c0 0-8.93 4.46-9.67 11.16 0 0-22.32 15.62-21.57 23.8-5.07 14.54-15.16 28.15-11.9 46.86 0 0 0 2.98 2.98 2.23 0 0 17.11 16.37 16.37 23.06 0 0-4.1 26.04 2.79 27.52h19.73s-0.95-2.98 2.03-2.23c2.98 0.74 2.2 2.23 2.2 2.23 0.39-1.87-3.52-9.65-11.13-8.18 0 0-2.23-6.69-0.74-10.41 0 0 11.9-14.88 5.21-26.78 0 0-10.44-18.65 4.08-34.24 0 0 11.54 0.02 15.26 10.44 0 0-0.43 3.6 2.23 8.93 0.74 1.49 1.49 7.44 2.98 7.44 0 0 1.49 2.98 3.72 3.72 0 0 4.46-8.18 0.74-17.11 0 0-3.72-23.06-7.44-28.27v-25.29s5.34-14.03 3.41-18.92c0 0-1.52-5.62 4.23-6 0 0-4.3-3.39-1.88-6.72-0.01 0 0.18-6.3 7.62-5.55z"/>
		<path class="st20" d="m614.38 252.7s-5.91 26.04-13.45 32.48c-16.1-18.72 2.78-49.25 13.45-32.48z"/>
		<path class="st10" d="m623.82 239.92s8.02-10.58 4.95-25.81c-8.95-2.53-6.44 14.61-6.74 20.3l1.79 5.51z"/>
		<path class="st20" d="m621.29 222.28l-0.37-12.5s4.46-13.86 3.72-17.72c0 0 4.67 1.09 5.31 0.85 0 0-2.01 13.88-2.92 14.26 0 0 2.14 4.1 2.1 10.05 0 0-5.24-1.04-7.84 5.06z"/>
		<path class="st10" d="m628.28 210.6s6.34-12.08 5.25-18.54c0 0-1.62 1.46-3.58 0.85 0.29 1.3-5.2 17.18-1.67 17.69z"/>
		<path class="st23" d="m633.53 192.07s-1.83 2.74-8.9 0c-5.54-13.72 15.74-3.84 10.42-15.87 0 0-3.12-2.36-4.72 1.29-6.23 2.72-1.05-9.27 7.7-4.9 0 0 5.21 5.21 2.98 6.69-0.01 0.01-5.28 11.44-7.48 12.79z"/>
		<path class="st24" d="m627.42 177.4s-4.14 2.46 1.19 6.07c12.26 0.88 7.28-11.78 1.72-7.28 0 0.01-1.61 2.31-2.91 1.21z"/>
		<path class="st21" d="m641.56 177.96s7.07 2.11 6.42 4.51c0 0 0.6 6.15-3.19 5.95 0 0 1.08 4.54-2.1 3.65 0 0-7.91 1.24-7.4-2.05l5.71-10.73s-0.38 0.32 0.56-1.33z"/>
		<path class="st11" d="m647.01 180.54s-1.29 3.04 1 2.94c0 0 2.41-2.05-1-2.94z"/>
				<path class="st11" d="m633.93 178.01c0.05 2.28-4.94 2.28-4.89 0-0.05-2.28 4.95-2.28 4.89 0z"/>
				<path class="st12" d="m633.93 177.94c0.03 1.41-3.05 1.41-3.01 0-0.03-1.41 3.05-1.41 3.01 0z"/>
		<path class="st18" d="m644.79 188.41s-5.95-0.05-4.68-3.29"/>
			<path class="st10" d="m725.57 328.8h-22.41s-9.06-2.96-8.21-19.01c0 0-8.87-12.25-8.87-14.78 0 0-4.12-3.38-5.86 0 0 0-5.97 8.45-7.66-5.91 0 0-5.07-34.64 5.91-41.4 0 0 9.29-16.9 13.52-17.74 0 0 16.9-18.59 21.97-18.59 0 0 2.53-25.35 12.67-28.72 0 0 1.69-11.83 8.45-5.91 0 0 5.75 0 6.68 1.69 0.45 1.74 6.45 1.49 6.94 5.61 0 0 5.82 2.83 5.82 4.52 0 0 0.84 14.36-5.91 18.59 0 0-4.22 3.38-5.07 14.36-0.84 10.98 2.53 12.67-3.38 21.12-3.37 11.42 8.02 19.83 7.6 40.55v6.76l-1.69-1.69h-1.69l-0.84-2.53h-0.84s-11.83-19.43-14.36-17.74c0 0-1.69-0.84-1.69 3.38 0 0-6.76 14.36-10.98 17.74-0.28 1.02 4.32 20.5-2.68 21.93 0 0-2.39 9.33-0.7 10.17-0.02 0 13.91 3.38 13.28 7.6z"/>
			<path class="st23" d="m748.17 184.04s-13.6 11.31 3.14 18.9c0 0 2.15-0.01 2.92-1.7 10.96 1.4 10.98 1.82 10.85-10.26 0 0-8.55 0.97-10.08-0.72-0.01-0.01 1.7-3.99-6.83-6.22z"/>
			<path class="st25" d="m764.24 190.79s-4.37 2.12-0.09 3.26c0.65-0.21 5.16-0.59 4.3-2.68 0 0-3.14-0.42-4.21-0.58z"/>
			<path class="st20" d="m743.53 221.51s-4.22-2.53-5.07-5.07c0 0-1.05-10.13-5.59-3.37 0.26 2.49 7.36 48.31 10.86 19.17-0.01-0.01-0.2-9.04-0.2-10.73z"/>
					<path class="st25" d="m752 192.44c0.06 2.59-5.61 2.59-5.55 0-0.06-2.6 5.62-2.6 5.55 0z"/>
					<path class="st10" d="m752 192.36c0.04 1.6-3.46 1.6-3.42 0-0.04-1.6 3.46-1.6 3.42 0z"/>
			<path class="st10" d="m726.63 182.65s2.33 7.85 6.23 1.39"/>
			<path class="st13" d="m729.87 186.9c-2.25-0.09-4-4.26-3.33-4.56 0.97 0.51 1.33 3.78 3.16 3.92 1.09 0.48 2.01-1.76 3.33-2.49 0.12 1.71-2.42 3.24-3.16 3.13z"/>
			<path class="st10" d="m728.32 267.98s-8.81-10.71-9.69-26.26"/>
			<path class="st13" d="m728.32 268.29c-0.2 0.26-9.92-12.1-9.71-26.9 1.39 14.32 9.6 26.65 9.95 26.38 0.18 0.2 0.02 0.53-0.24 0.52z"/>
			<path class="st10" d="m682.11 294.08s-6.13-2.67-3.99-7.54"/>
			<path class="st13" d="m682.11 294.51c-1.59 0.08-7.46-5.86-3.82-8.35-1.41 7.26 5.95 7.1 3.82 8.35z"/>
			<path class="st26" d="m843.19 328.8h-21.79s-8.33-1.88-4.57-27.3c0 0-18.83-11.3-15.06-22.59 0 0 12.24-32.95 21.65-34.83 0 0 0-18.83 4.71-19.77 0 0 4.71-14.12 10.35-13.18 0 0-2.82-9 4.71-7.32l15.96-0.21s3.81 4.71 3.81 5.65c0 0 14.12 0.94 9.41 7.53 0 0 0.94 6.59-16 4.71 0 0-1.88 3.77-6.59 3.77 0 0 4.71 26.36-1.88 30.12 0 0 8.47 14.12 7.53 18.83 0 0 5.65 16 1.88 17.88 0 0-7.53-5.65-7.53-15.06 0 0-4.79-13.18-7.57-10.83 0 0-14.08 20.24-16.9 19.3 0 0 9.41 11.3 6.59 21.65 0 0-9.41 9.41-1.88 14.12l2.82 3.77s12.24 0 10.35 3.76z"/>
			<path class="st27" d="m851.33 239.21s-4.37-1.71-4.37-6.42c0 0 0-11.3-3.77-8.47-9.27 23.53 9.39 11.16 4.71 31.06 0 0 4.03-1.28 3.43-16.17z"/>
			<path class="st28" d="m859.16 203.61s-12.75 6.76-7.77 10.91c0 0 5.93-0.55 4.99 5.09 0 0 12.97-2.27 13.55 0.75 5.68-5.35 3.28-10.14-6.96-11.1l-3.81-5.65z"/>
			<path class="st25" d="m870.21 212.47s2.92-1.69 3.32 0c0 0 1.02 1.64-1.02 1.42 0 0-2.06-0.14-2.3-1.42z"/>
			<path class="st13" d="m840.83 212.41c-2.67 0.13-3.37-2.04-2.02-1.42 0.02 0.03 0.55 0.97 2.96 0.65 1.17 0.42-0.43 0.93-0.94 0.77z"/>
			<path class="st29" d="m856.37 221.49v-1.88s13.44-2.74 13.55 0.75c0 0-2.72 3.49-13.55 1.13z"/>
			<path class="st13" d="m869.92 220.71c-0.31 0.05-7.92-0.59-6.87-3.31 0.19-0.06 0.38 0.06 0.44 0.25-0.02 2.24 8.47 1.99 6.43 3.06z"/>
			<path class="st13" d="m843.19 217.14c-3.57-5.1 0.79-11.22 1.36-10.41 0.39 0.97-4 3.89-1.05 9.9 0.13 0.23-0.05 0.52-0.31 0.51z"/>
					<path class="st25" d="m857.78 208.83c0.04 2.39-4.34 2.39-4.3 0-0.04-2.39 4.35-2.39 4.3 0z"/>
					<path class="st10" d="m857.78 208.76c0.03 1.47-2.68 1.47-2.65 0-0.02-1.47 2.68-1.47 2.65 0z"/>
</svg>
